<?xml version="1.0" standalone="no"?><!DOCTYPE svg PUBLIC "-//W3C//DTD SVG 1.1//EN" "http://www.w3.org/Graphics/SVG/1.1/DTD/svg11.dtd"><svg t="1707027382663" class="icon" viewBox="0 0 1024 1024" version="1.1" xmlns="http://www.w3.org/2000/svg" p-id="16194" xmlns:xlink="http://www.w3.org/1999/xlink" width="200" height="200"><path d="M808.748138 713.410207c-3.742897-81.178483-57.344-150.669241-134.038069-183.896276h5.614345v-81.178483c0-11.052138-9.992828-20.268138-22.45738-20.268138h-44.844137V0h-45.550345v40.606897H273.867034c-12.464552 0-22.457379 9.18069-22.457379 20.268137v102.117518H93.078069c-12.499862 0-22.457379 9.18069-22.457379 20.268138v203.599448c0 11.052138 9.957517 20.268138 22.457379 20.268138h316.027586c12.499862 0 22.457379-9.18069 22.457379-20.268138V285.378207h135.944828v142.653793H522.593103c-12.464552 0-22.422069 9.25131-22.422069 20.303448v71.326897c-55.507862 16.631172-102.894345 51.058759-132.16662 97.809655a132.307862 132.307862 0 0 0-61.722483-14.759724c-64.229517 0-117.230345 44.279172-124.080552 100.281379-66.701241 26.412138-110.945103 86.686897-110.945103 153.705931 0 44.314483 18.714483 85.486345 52.965517 116.877242 33.686069 31.355586 79.201103 49.18731 127.823448 50.423172h533.009656a183.543172 183.543172 0 0 0 119.066482-47.351172c31.77931-29.519448 49.257931-68.254897 49.257931-109.462069-1.235862-76.270345-62.958345-140.852966-144.631172-153.776552zM116.135724 366.55669V203.564138H251.409655V264.474483c0 5.543724 2.471724 10.487172 6.850207 14.159448l96.644414 87.322483H116.135724v0.635586z m270.547862-28.919173l-58.615172-52.894896h58.615172v52.894896z m-90.394483-92.866207V81.814069h271.183449v162.957241h-271.183449z m248.125794 223.867587h90.394482v47.986758a258.189241 258.189241 0 0 0-62.322758-7.415172c-9.357241 0-18.714483 0.635586-28.071724 1.871448v-42.443034z" fill="#396AFF" p-id="16195"></path></svg>