<?xml version="1.0" standalone="no"?><!DOCTYPE svg PUBLIC "-//W3C//DTD SVG 1.1//EN" "http://www.w3.org/Graphics/SVG/1.1/DTD/svg11.dtd"><svg t="1707027414699" class="icon" viewBox="0 0 1024 1024" version="1.1" xmlns="http://www.w3.org/2000/svg" p-id="19634" xmlns:xlink="http://www.w3.org/1999/xlink" width="200" height="200"><path d="M138.666667 170.666667v192A32 32 0 0 0 170.666667 394.666667h256a32 32 0 0 0 32-32V170.666667A32 32 0 0 0 426.666667 138.666667H170.666667A32 32 0 0 0 138.666667 170.666667z m64 160v-128h192v128h-192z" p-id="19635" fill="#be8dbd"></path><path d="M757.333333 490.666667V256a32 32 0 0 0-32-32H426.666667v64h266.666666V490.666667h64z" p-id="19636" fill="#be8dbd"></path><path d="M809.386667 382.72L725.333333 466.730667l-84.053333-84.053334-45.226667 45.269334L725.333333 557.226667l129.28-129.28-45.226666-45.269334z" p-id="19637" fill="#be8dbd"></path><path d="M885.333333 853.333333v-192a32 32 0 0 0-32-32H597.333333a32 32 0 0 0-32 32v192a32 32 0 0 0 32 32h256a32 32 0 0 0 32-32z m-64-160v128h-192v-128h192z" p-id="19638" fill="#be8dbd"></path><path d="M266.666667 533.333333v234.666667a32 32 0 0 0 32 32h298.666666v-64H330.666667V533.333333h-64z" p-id="19639" fill="#be8dbd"></path><path d="M214.613333 641.28L298.666667 557.269333l84.053333 84.053334 45.226667-45.269334L298.666667 466.773333l-129.28 129.28 45.226666 45.269334z" p-id="19640" fill="#be8dbd"></path></svg>