<?xml version="1.0" standalone="no"?><!DOCTYPE svg PUBLIC "-//W3C//DTD SVG 1.1//EN" "http://www.w3.org/Graphics/SVG/1.1/DTD/svg11.dtd"><svg t="1707027283956" class="icon" viewBox="0 0 1024 1024" version="1.1" xmlns="http://www.w3.org/2000/svg" p-id="3565" xmlns:xlink="http://www.w3.org/1999/xlink" width="200" height="200"><path d="M512.291406 146.868526c-109.568583 0-198.155948 27.974957-198.155948 61.778031v49.538987c0 34.385885 88.587365 61.778031 198.155948 61.77803s198.155948-27.974957 198.155947-61.77803v-49.538987c0-33.803073-88.587365-61.778031-198.155947-61.778031z" p-id="3566" fill="#1296db"></path><path d="M512.291406 357.263517c-109.568583 0-198.155948-27.974957-198.155948-61.77803v74.599886c0 34.385885 88.587365 61.778031 198.155948 61.778031s198.155948-27.974957 198.155947-61.778031v-74.599886c0 34.385885-88.587365 61.778031-198.155947 61.77803zM154.445077 687.134889c-72.851451 0-132.298236 18.649972-132.298236 41.379624v33.220262c0 22.729653 59.446784 41.379624 132.298236 41.379625s132.298236-18.649972 132.298235-41.379625V728.514513c0-22.729653-58.863973-41.379624-132.298235-41.379624z" p-id="3567" fill="#1296db"></path><path d="M154.445077 828.175299c-72.851451 0-132.298236-18.649972-132.298236-41.379625v49.538987c0 22.729653 59.446784 41.379624 132.298236 41.379625s132.298236-18.649972 132.298235-41.379625V786.795674c0 22.729653-58.863973 41.379624-132.298235 41.379625zM512.291406 687.134889c-72.851451 0-132.298236 18.649972-132.298236 41.379624v33.220262c0 22.729653 59.446784 41.379624 132.298236 41.379625s132.298236-18.649972 132.298235-41.379625V728.514513c0-22.729653-59.446784-41.379624-132.298235-41.379624z" p-id="3568" fill="#1296db"></path><path d="M512.291406 828.175299c-72.851451 0-132.298236-18.649972-132.298236-41.379625v49.538987c0 22.729653 59.446784 41.379624 132.298236 41.379625s132.298236-18.649972 132.298235-41.379625V786.795674c0 22.729653-59.446784 41.379624-132.298235 41.379625zM870.137735 687.134889c-72.851451 0-132.298236 18.649972-132.298236 41.379624v33.220262c0 22.729653 59.446784 41.379624 132.298236 41.379625s132.298236-18.649972 132.298235-41.379625V728.514513c0-22.729653-59.446784-41.379624-132.298235-41.379624z" p-id="3569" fill="#1296db"></path><path d="M870.137735 828.175299c-72.851451 0-132.298236-18.649972-132.298236-41.379625v49.538987c0 22.729653 59.446784 41.379624 132.298236 41.379625s132.298236-18.649972 132.298235-41.379625V786.795674c0 22.729653-59.446784 41.379624-132.298235 41.379625z" p-id="3570" fill="#1296db"></path><path d="M497.721116 447.599317h29.723392v215.640296h-29.723392zM133.463859 664.405236l226.130905-222.634035h34.385885l-226.130905 222.634035zM891.118953 664.405236l-226.130905-222.634035h-34.385885l226.130905 222.634035z" fill="#1296db" p-id="3571"></path></svg>