<?xml version="1.0" standalone="no"?><!DOCTYPE svg PUBLIC "-//W3C//DTD SVG 1.1//EN" "http://www.w3.org/Graphics/SVG/1.1/DTD/svg11.dtd"><svg t="1707027459444" class="icon" viewBox="0 0 1024 1024" version="1.1" xmlns="http://www.w3.org/2000/svg" p-id="20791" xmlns:xlink="http://www.w3.org/1999/xlink" width="200" height="200"><path d="M779.376008 495.077963a35.709867 35.709867 0 0 0-8.639968-56.827789L545.856874 322.162604l39.036855-252.590062a33.085877 33.085877 0 0 0-17.534934-35.965867c-13.630949-6.974974-27.517898-1.662994-38.332858 9.279966l-172.979358 174.963351-232.176139-112.503583c-13.629949-7.039974-32.44488-6.719975-43.259839 4.222984l0.639997 0.639998c-10.81596 10.943959-12.159955 29.053892-5.119981 42.876841l111.543587 237.807117-172.979359 172.339361C3.879886 574.11267-1.368095 588.191617 5.541879 601.951566c6.847975 13.822949 19.134929 18.87793 34.173874 16.509939l250.47807-38.972855 115.447572 228.464152a35.197869 35.197869 0 0 0 66.235754-10.687961l39.676853-251.885065 248.430078-40.44585a35.06987 35.06987 0 0 0 19.389928-9.918963z m-163.764392 74.682723l-36.861864 7.679971c-19.005929 2.366991-36.796863 17.853934-39.868852 37.116862l-4.927981 31.549883 311.849842 357.989672a56.955789 56.955789 0 0 0 68.474746 13.950948c12.799953-6.399976 25.918904-14.462946 35.645868-24.31791 12.926952-13.182951 23.805912-30.461887 32.18988-46.396827a59.963777 59.963777 0 0 0-13.950948-72.95473l-352.550691-304.618869z m231.343141-367.909635a7.039974 7.039974 0 0 0-0.639998-4.287984 6.719975 6.719975 0 0 0-7.166973-3.646987l-48.50982 8.31897-22.333917-44.476835a6.271977 6.271977 0 0 0-6.846975-3.583987c-2.943989 0.511998-4.479983 3.007989-4.991981 5.951978l-7.486972 47.996822-49.276818 9.726964c-2.943989 0.511998-5.886978 2.81599-6.399976 5.759978l0.192999 0.064a7.295973 7.295973 0 0 0 4.030986 7.358973l44.412835 24.317909-7.806971 47.612824c-0.447998 3.007989 0.255999 5.823978 2.943989 7.167973 2.62299 1.343995 5.119981 0.703997 7.230973-1.407995l35.06987-35.773867 43.964837 22.398917a6.783975 6.783975 0 0 0 7.99997-1.407995 7.103974 7.103974 0 0 0 1.278995-8.12797l-22.205917-44.348835 34.556871-35.772867a7.103974 7.103974 0 0 0 1.919993-3.839986zM414.090363 40.582649a6.015978 6.015978 0 0 0-0.511998-3.647986 5.695979 5.695979 0 0 0-6.079977-3.071989l-41.084848 6.975974-18.942929-37.62986A5.31198 5.31198 0 0 0 341.710632 0.0738c-2.559991 0.447998-3.839986 2.559991-4.286984 5.119981l-6.399976 40.636849-41.724846 8.254969c-2.431991 0.383999-4.927982 2.303991-5.37598 4.863982h0.192c-0.383999 2.559991 1.151996 5.119981 3.391987 6.270977l37.62986 20.606923-6.655975 40.316851c-0.383999 2.559991 0.255999 4.927982 2.559991 6.079977 2.175992 1.151996 4.287984 0.639998 6.079977-1.215995l29.75689-30.269888 37.245861 18.94293a5.759979 5.759979 0 0 0 6.719975-1.151996 6.015978 6.015978 0 0 0 1.086996-6.911974L383.180478 74.053525l29.309891-30.269887a6.015978 6.015978 0 0 0 1.599994-3.263988zM60.003677 293.044713a4.287984 4.287984 0 0 0-7.039974 0.255999L35.621768 320.306611l-30.205888-8.639968a3.967985 3.967985 0 0 0-4.670983 1.727994c-1.023996 1.663994-0.639998 3.519987 0.639998 5.055981l18.74993 24.573909L3.111888 370.990423c-1.087996 1.663994-1.279995 4.095985-0.127999 5.631979l0.064-0.127999c1.214995 1.535994 3.390987 1.983993 5.119981 1.279995l30.652886-10.75096 18.494931 24.509909c1.151996 1.535994 2.81599 2.431991 4.543983 1.727994 1.790993-0.639998 2.559991-2.111992 2.559991-4.095985l-1.152996-32.50988 29.437891-11.454957a4.607983 4.607983 0 0 0 1.919993-7.039974 4.351984 4.351984 0 0 0-2.239992-1.534994l-30.076888-8.703968-1.343995-32.18988a4.607983 4.607983 0 0 0-0.959997-2.622991z" p-id="20792" fill="#e89abe"></path></svg>